<?xml version="1.0" encoding="utf-8"?>
<!-- Generator: Adobe Illustrator 25.2.3, SVG Export Plug-In . SVG Version: 6.00 Build 0)  -->
<svg version="1.1" xmlns="http://www.w3.org/2000/svg" xmlns:xlink="http://www.w3.org/1999/xlink" x="0px" y="0px"
	 viewBox="0 0 88 16" style="enable-background:new 0 0 88 16;" xml:space="preserve">
<style type="text/css">
	.st0{display:none;}
	.st1{display:inline;}
	.st2{fill:#FFFFFF;}
</style>
<g id="Layer_2" class="st0">
	<rect class="st1" width="88" height="16"/>
</g>
<g id="Layer_1">
	<g>
		<path class="st2" d="M1.6,12.4V1h3C5.2,1,5.7,1,6.2,1.1C6.6,1.3,7,1.4,7.3,1.7s0.6,0.5,0.7,0.9C8.2,3,8.3,3.4,8.3,4
			c0,0.3,0,0.6-0.1,0.9C8.2,5.1,8.1,5.4,7.9,5.6C7.8,5.8,7.6,6,7.4,6.2C7.2,6.4,6.9,6.5,6.6,6.6c0.3,0.1,0.5,0.1,0.8,0.3
			C7.7,7,7.9,7.2,8.2,7.4c0.2,0.2,0.4,0.5,0.5,0.8c0.1,0.3,0.2,0.7,0.2,1.1c0,0.5-0.1,1-0.3,1.4c-0.2,0.4-0.5,0.7-0.8,1
			C7.4,12,7,12.2,6.5,12.3c-0.5,0.1-0.9,0.2-1.4,0.2H1.6z M3.4,2.5v3.4h1.5c0.6,0,1-0.2,1.3-0.5s0.4-0.7,0.4-1.2
			c0-0.6-0.2-1-0.5-1.2C5.8,2.7,5.3,2.5,4.7,2.5H3.4z M3.4,7.4v3.5H5c0.3,0,0.6,0,0.9-0.1c0.3-0.1,0.5-0.2,0.7-0.3
			c0.2-0.1,0.4-0.3,0.5-0.5c0.1-0.2,0.2-0.5,0.2-0.8c0-0.3-0.1-0.6-0.2-0.8C6.8,8.1,6.7,7.9,6.4,7.8S5.9,7.5,5.7,7.5
			S5.1,7.4,4.8,7.4H3.4z"/>
		<path class="st2" d="M9.9,9.2c0-0.5,0.1-0.9,0.3-1.4C10.4,7.4,10.7,7,11,6.7s0.7-0.6,1.1-0.8s0.9-0.3,1.3-0.3c0.3,0,0.6,0,0.9,0.1
			S14.8,6,15,6.1c0.2,0.1,0.3,0.2,0.5,0.4c0.1,0.1,0.2,0.2,0.2,0.3l0.1-0.9H17v6.6h-1.4v-0.8c-0.1,0.1-0.1,0.2-0.3,0.3
			c-0.1,0.1-0.3,0.2-0.5,0.3c-0.2,0.1-0.4,0.2-0.7,0.3c-0.3,0.1-0.5,0.1-0.9,0.1c-0.5,0-1-0.1-1.4-0.3c-0.4-0.2-0.8-0.4-1.1-0.7
			c-0.3-0.3-0.5-0.7-0.7-1.1C10,10.1,9.9,9.7,9.9,9.2z M11.3,9.1c0,0.3,0.1,0.6,0.2,0.9c0.1,0.3,0.3,0.5,0.5,0.7
			c0.2,0.2,0.4,0.3,0.7,0.5c0.3,0.1,0.6,0.2,0.9,0.2c0.3,0,0.6-0.1,0.9-0.2c0.3-0.1,0.5-0.3,0.7-0.5c0.2-0.2,0.3-0.4,0.5-0.7
			c0.1-0.3,0.2-0.5,0.2-0.8c0-0.3-0.1-0.6-0.2-0.8C15.4,8,15.2,7.8,15,7.6c-0.2-0.2-0.4-0.3-0.7-0.5C14.1,7,13.8,7,13.5,7
			c-0.3,0-0.6,0.1-0.9,0.2c-0.3,0.1-0.5,0.3-0.7,0.5c-0.2,0.2-0.3,0.4-0.5,0.7C11.4,8.5,11.3,8.8,11.3,9.1z"/>
		<path class="st2" d="M18.5,9.1c0-0.5,0.1-0.9,0.3-1.3c0.2-0.4,0.4-0.8,0.8-1.1s0.7-0.6,1.1-0.7C21,5.8,21.5,5.7,22,5.7
			s1,0.1,1.4,0.3c0.4,0.2,0.8,0.4,1.1,0.7s0.6,0.7,0.7,1.1s0.3,0.9,0.3,1.3c0,0.5-0.1,0.9-0.3,1.3s-0.4,0.8-0.7,1.1
			s-0.7,0.6-1.1,0.8c-0.4,0.2-0.9,0.3-1.4,0.3c-0.5,0-0.9-0.1-1.4-0.3c-0.4-0.2-0.8-0.4-1.1-0.7s-0.6-0.7-0.8-1.1
			C18.5,10.1,18.5,9.6,18.5,9.1z M19.8,9.1c0,0.3,0.1,0.6,0.2,0.8c0.1,0.3,0.3,0.5,0.5,0.7c0.2,0.2,0.4,0.3,0.7,0.5
			c0.3,0.1,0.5,0.2,0.8,0.2c0.3,0,0.6-0.1,0.8-0.2c0.3-0.1,0.5-0.3,0.7-0.5c0.2-0.2,0.4-0.4,0.5-0.7c0.1-0.3,0.2-0.5,0.2-0.8
			c0-0.3-0.1-0.6-0.2-0.8c-0.1-0.3-0.3-0.5-0.5-0.7c-0.2-0.2-0.4-0.3-0.7-0.5C22.5,7,22.2,7,21.9,7c-0.3,0-0.6,0.1-0.8,0.2
			c-0.3,0.1-0.5,0.3-0.7,0.5C20.2,7.8,20.1,8,20,8.3S19.8,8.8,19.8,9.1z"/>
		<path class="st2" d="M33.6,1.6L33,3c-0.4-0.2-0.9-0.3-1.3-0.4c-0.4-0.1-0.8-0.1-1.2-0.1c-0.7,0-1.2,0.1-1.6,0.4
			c-0.4,0.3-0.6,0.6-0.6,1c0,0.4,0.1,0.6,0.4,0.9C29,5,29.3,5.2,29.8,5.4c0.4,0.2,0.9,0.3,1.4,0.5c0.5,0.2,1,0.4,1.4,0.7
			c0.4,0.3,0.8,0.6,1.1,1s0.4,1,0.4,1.6c0,0.5-0.1,1-0.3,1.4c-0.2,0.4-0.5,0.8-0.8,1.1c-0.4,0.3-0.8,0.5-1.4,0.7s-1.2,0.2-1.9,0.2
			c-0.5,0-0.9,0-1.3-0.1c-0.4-0.1-0.7-0.1-1-0.2c-0.3-0.1-0.6-0.2-0.8-0.3c-0.2-0.1-0.4-0.2-0.6-0.3l0.8-1.5
			c0.4,0.2,0.9,0.4,1.4,0.6c0.5,0.1,1,0.2,1.4,0.2c0.2,0,0.5,0,0.8-0.1s0.6-0.1,0.9-0.3s0.5-0.3,0.7-0.5s0.3-0.5,0.3-0.8
			c0-0.3-0.1-0.6-0.2-0.8c-0.2-0.2-0.4-0.4-0.6-0.6c-0.3-0.2-0.6-0.3-0.9-0.4c-0.3-0.1-0.7-0.3-1.1-0.4c-0.4-0.1-0.7-0.3-1.1-0.5
			c-0.3-0.2-0.6-0.4-0.9-0.6c-0.3-0.2-0.5-0.5-0.6-0.8c-0.2-0.3-0.2-0.7-0.2-1.1c0-0.4,0.1-0.8,0.2-1.2c0.2-0.4,0.4-0.7,0.7-1
			c0.3-0.3,0.7-0.5,1.2-0.7c0.5-0.2,1-0.3,1.6-0.3c0.4,0,0.8,0,1.1,0.1c0.4,0.1,0.7,0.1,1,0.2c0.3,0.1,0.5,0.2,0.8,0.2
			S33.5,1.6,33.6,1.6z"/>
		<path class="st2" d="M38.8,6.9l-0.5-1.1h1.2c0.3,0.7,0.6,1.2,0.8,1.7c0.2,0.5,0.4,0.9,0.5,1.2s0.3,0.7,0.4,0.9
			c0.1,0.2,0.2,0.4,0.2,0.6c0.1-0.3,0.1-0.6,0.2-0.9c0.1-0.3,0.2-0.5,0.3-0.9c0.1-0.3,0.3-0.7,0.5-1.1c0.2-0.4,0.4-1,0.7-1.6h1.4
			l-3.1,7c-0.2-0.4-0.4-0.8-0.5-1.2s-0.3-0.8-0.5-1.1c-0.2-0.4-0.3-0.8-0.5-1.1c-0.2-0.4-0.3-0.8-0.5-1.2l-2,4.6l-3-7h1.4
			C36,6.5,36.2,7,36.4,7.5c0.2,0.4,0.3,0.8,0.5,1.1c0.1,0.3,0.2,0.6,0.3,0.9c0.1,0.3,0.1,0.5,0.2,0.9c0-0.1,0.1-0.3,0.1-0.4
			s0.1-0.4,0.2-0.6s0.2-0.6,0.4-0.9C38.3,8,38.5,7.5,38.8,6.9z"/>
		<path class="st2" d="M44.9,9.2c0-0.5,0.1-0.9,0.3-1.4c0.2-0.4,0.4-0.8,0.8-1.1s0.7-0.6,1.1-0.8s0.9-0.3,1.3-0.3
			c0.3,0,0.6,0,0.9,0.1s0.5,0.2,0.7,0.3c0.2,0.1,0.3,0.2,0.5,0.4c0.1,0.1,0.2,0.2,0.2,0.3l0.1-0.9h1.3v6.6h-1.4v-0.8
			c-0.1,0.1-0.1,0.2-0.3,0.3c-0.1,0.1-0.3,0.2-0.5,0.3c-0.2,0.1-0.4,0.2-0.7,0.3c-0.3,0.1-0.5,0.1-0.9,0.1c-0.5,0-1-0.1-1.4-0.3
			c-0.4-0.2-0.8-0.4-1.1-0.7c-0.3-0.3-0.5-0.7-0.7-1.1C44.9,10.1,44.9,9.7,44.9,9.2z M46.2,9.1c0,0.3,0.1,0.6,0.2,0.9
			s0.3,0.5,0.5,0.7c0.2,0.2,0.4,0.3,0.7,0.5c0.3,0.1,0.6,0.2,0.9,0.2s0.6-0.1,0.9-0.2c0.3-0.1,0.5-0.3,0.7-0.5
			c0.2-0.2,0.3-0.4,0.5-0.7c0.1-0.3,0.2-0.5,0.2-0.8c0-0.3-0.1-0.6-0.2-0.8S50.2,7.8,50,7.6c-0.2-0.2-0.4-0.3-0.7-0.5
			C49,7,48.7,7,48.4,7S47.8,7,47.5,7.2c-0.3,0.1-0.5,0.3-0.7,0.5c-0.2,0.2-0.3,0.4-0.5,0.7S46.2,8.8,46.2,9.1z"/>
		<path class="st2" d="M60.9,9.2c0,0.5-0.1,1-0.3,1.4c-0.2,0.4-0.4,0.8-0.7,1.1s-0.7,0.5-1.1,0.7s-0.9,0.3-1.4,0.3
			c-0.3,0-0.5,0-0.8-0.1c-0.2-0.1-0.5-0.1-0.7-0.2c-0.2-0.1-0.4-0.2-0.5-0.3s-0.3-0.2-0.3-0.4c0,0.1,0,0.1,0,0.2c0,0.1,0,0.1,0,0.2
			v3.7h-1.4V5.8h1.3c0,0.1,0,0.3,0,0.5s0,0.4,0,0.5c0.1-0.1,0.2-0.3,0.3-0.4C55.7,6.3,55.8,6.2,56,6c0.2-0.1,0.4-0.2,0.7-0.3
			c0.2-0.1,0.5-0.1,0.8-0.1c0.5,0,1,0.1,1.4,0.2c0.4,0.2,0.8,0.4,1.1,0.7c0.3,0.3,0.5,0.7,0.7,1.1S60.9,8.6,60.9,9.2z M59.4,9.1
			c0-0.3,0-0.6-0.1-0.8c-0.1-0.3-0.2-0.5-0.4-0.7c-0.2-0.2-0.4-0.3-0.6-0.5C58,7,57.7,7,57.4,7S56.8,7,56.5,7.2
			c-0.3,0.1-0.5,0.3-0.7,0.5c-0.2,0.2-0.3,0.4-0.5,0.7c-0.1,0.3-0.2,0.5-0.2,0.8c0,0.3,0.1,0.6,0.2,0.9c0.1,0.3,0.3,0.5,0.5,0.7
			c0.2,0.2,0.4,0.3,0.7,0.5c0.3,0.1,0.6,0.2,0.9,0.2s0.6-0.1,0.9-0.2c0.3-0.1,0.5-0.3,0.6-0.5c0.2-0.2,0.3-0.4,0.4-0.7
			C59.4,9.7,59.4,9.4,59.4,9.1z"/>
	</g>
</g>
</svg>
